<?xml version="1.0" encoding="UTF-8"?>
<svg id="Layer_1" data-name="Layer 1" xmlns="http://www.w3.org/2000/svg" width="198.46" height="196.44" xmlns:xlink="http://www.w3.org/1999/xlink" viewBox="0 0 198.46 196.44">
  <defs>
    <style>
      .cls-1, .cls-2, .cls-3, .cls-4, .cls-5 {
      fill: none;
      }

      .cls-2 {
      stroke-width: 8.46px;
      }

      .cls-2, .cls-3, .cls-4, .cls-5 {
      stroke: #dce0df;
      stroke-miterlimit: 10;
      }

      .cls-3 {
      stroke-width: 4.48px;
      }

      .cls-4 {
      stroke-width: 4.55px;
      }

      .cls-6 {
      clip-path: url(#clippath-3);
      }

      .cls-7 {
      clip-path: url(#clippath-2);
      }

      .cls-5 {
      stroke-width: 1.14px;
      }

      .cls-8 {
      fill: #dce0df;
      }
    </style>
    <clipPath id="clippath-2">
      <rect class="cls-1" x="125.78" y="75.92" width="60.8" height="37.02"/>
    </clipPath>
    <clipPath id="clippath-3">
      <rect class="cls-1" x="11.88" y="75.92" width="60.8" height="37.02"/>
    </clipPath>
  </defs>
  <g>
    <g>
      <path class="cls-8" d="M84.62,91.87c-5.44-1.03-9.06,4.54-9.06,8.24s3.65,8.09,8.6,8.05c3.1,0,8.37-1.42,8.37-5.12s-2.19-10.09-7.91-11.17ZM87.03,100.16c-.94,0-1.7-.77-1.7-1.72s.76-1.72,1.7-1.72,1.7.77,1.7,1.72-.76,1.72-1.7,1.72Z"/>
      <path class="cls-8" d="M115.34,91.87c-5.72,1.08-7.91,7.47-7.91,11.17s5.27,5.12,8.37,5.12c4.95.04,8.6-4.35,8.6-8.05s-3.61-9.27-9.06-8.24ZM119.44,100.16c-.94,0-1.7-.77-1.7-1.72s.76-1.72,1.7-1.72,1.7.77,1.7,1.72-.76,1.72-1.7,1.72Z"/>
    </g>
    <path class="cls-3" d="M65.78,106.4c3.73,6.55,25.91,10.81,33.45,10.07,9.17-.9,6.38,18.89-2.31,24.41-3.44,2.19-24.81.59-32.44-5.68-10.68-8.78.8-29.66,1.3-28.8Z"/>
    <path class="cls-4" d="M104.98,134.55c0-4.18-.81-13.26,2.81-16.93,4.46-4.52,12.34-2.22,25.6-9.34,3.48-1.87,7.51,19.9,1.98,25.49-2.02,2.04-13.57,7.5-21.12,7.93-9.17.53-9.28-4.03-9.28-7.15Z"/>
    <g>
      <g class="cls-7">
        <path class="cls-4" d="M177.55,80.53c-7.26,1.61-16.71-.75-26.33-1.77-9.07-.96-15.99-.7-19.71,1.09-1.62.78-4.09,3.04-3.33,5.97,0,0,3.6,6.69,4.59,10.51,1.38,5.33,2.03,10,2.03,10,.76,2.93,4.04,3.86,5.79,4.17,5.26.93,13.17-2.51,17.11-4.9,14.18-8.64,20.55-13.44,24.58-18.94,2.36-3.22,4.5-8.17-4.72-6.12Z"/>
        <path class="cls-5" d="M134.31,95.86c0-2.07,1.54-6.36,6.6-8.23,7.89-2.91,18.54-1.34,26.42-1.34,4.44,0,11.4-.99,15.37-4.12"/>
      </g>
      <g class="cls-6">
        <path class="cls-4" d="M20.91,80.53c7.26,1.61,16.71-.75,26.33-1.77,9.07-.96,15.99-.7,19.71,1.09,1.62.78,4.09,3.04,3.33,5.97,0,0-3.6,6.69-4.59,10.51-1.38,5.33-2.03,10-2.03,10-.76,2.93-4.04,3.86-5.79,4.17-5.26.93-13.17-2.51-17.11-4.9-14.18-8.64-20.55-13.44-24.58-18.94-2.36-3.22-4.5-8.17,4.72-6.12Z"/>
        <path class="cls-5" d="M64.15,95.86c0-2.07-1.54-6.36-6.6-8.23-7.89-2.91-18.54-1.34-26.42-1.34-4.44,0-11.4-.99-15.37-4.12"/>
      </g>
    </g>
    <path class="cls-4" d="M66.76,97.01c4.36-11.51,14.68-22.33,32.8-22.33s28.48,10.8,32.8,22.33c5.8,15.48-12.95,17.17-31.65,18.89-18.11,0-39.8-3.42-33.94-18.89Z"/>
  </g>
  <g>
    <path class="cls-8" d="M4.23,57.9l48.13-.31c3.57,0,5.6-.31,6.79-1.17,1.61-1.01,2.45-2.73,2.45-4.84,0-2.34-1.05-4.45-2.87-5.46-1.05-.7-2.87-1.01-5.18-1.01h-8.61c-5.39,0-9.02-1.01-11.4-3.2-2.94-2.73-4.69-7.02-4.69-11.7,0-6.47,3.08-12.17,7.7-14.12,2.24-.94,4.69-1.25,10.43-1.25h23.09l1.41,9.28h-22.26c-4.34,0-5.95.16-7.07.78-1.47.94-2.31,2.65-2.31,4.99,0,2.03.77,3.74,2.1,4.76,1.26.86,2.8,1.17,6.44,1.17h7.49c6.72,0,10.28,1.09,13.01,3.98,2.31,2.42,3.78,7.02,3.78,11.78,0,5.38-2.17,10.3-5.6,12.95-2.38,1.79-5.32,2.34-12.52,2.34H4.23v-8.98Z"/>
    <path class="cls-8" d="M85.53,48.03l10.28-33.18h11.76l10.36,33.18,11.1-33.18h10.8l-15.98,44.09h-11.91l-10.21-31.86-10.28,31.86h-11.91l-15.98-44.09h10.88l11.1,33.18Z"/>
    <path class="cls-8" d="M141.97,49.45c0,5.13.56,7.65,2.18,9.68,1.62,2.03,4.42,3.33,7.28,3.33,3.92,0,7.09-1.87,8.21-4.88.62-1.63.87-3.99.87-8.14l.53-47.24h8.3v46.67c0,8.38-1.31,13.67-4.17,17.08-3.36,3.82-7.77,5.61-13.93,5.61s-11.01-1.79-13.99-5.53c-3.11-3.82-4.1-7.81-4.1-16.35V14.85h8.83v34.6Z"/>
    <g>
      <path class="cls-8" d="M46.53,148.32c6.09,0,10.15,1.33,13.23,4.34,2.52,2.41,3.85,5.96,3.85,9.94,0,5.78-2.66,10.3-7.49,12.89-3.15,1.69-5.88,2.17-12.05,2.17h-15.27v-40.18h9.38v10.84h8.33ZM38.19,171.39h6.93c5.53,0,8.89-3.25,8.89-8.55s-2.94-8.25-8.89-8.25h-6.93v16.81Z"/>
      <path class="cls-8" d="M91.51,159.82c.14-4.04-1.47-5.24-7.14-5.24h-15.83v-6.26h15.83c7.98-.12,10.57.54,13.45,3.25,2.38,2.47,3.15,5,3.08,9.58v16.5h-19.75c-7.07,0-8.82-.24-10.93-1.45-2.59-1.51-4.13-4.16-4.13-7.23,0-3.98,2.38-7.35,6.02-8.43,1.54-.48,4.27-.72,7.91-.72h11.49ZM80.66,166.09q-2.24,0-3.01.18c-1.26.3-2.03,1.33-2.03,2.53,0,1.87,1.33,2.59,5.04,2.59h10.85v-5.3h-10.85Z"/>
      <path class="cls-8" d="M136.09,154.58h-16.67c-4.2,0-5.18.48-5.18,2.59,0,1.08.49,1.87,1.54,2.41.63.36,1.68.48,4.55.48h5.53c7.49,0,11.76,3.01,11.76,8.37,0,3.49-2.17,6.99-5.25,8.31-1.4.66-3.78.9-7.91.9h-19.4v-6.26h16.67c3.08,0,4.2-.06,5.04-.24.98-.18,1.68-1.08,1.68-2.23s-.63-2.11-1.61-2.53c-.7-.3-1.68-.36-4.06-.36h-5.74c-4.34,0-6.37-.42-8.4-1.69-2.52-1.5-4.06-4.34-4.06-7.47,0-2.83,1.33-5.36,3.71-7.05,1.61-1.08,3.71-1.51,7.77-1.51h20.03v6.26Z"/>
      <path class="cls-8" d="M169.33,166.08h-19.75c.28,3.79,2.8,5.42,8.26,5.3h11.48v6.26h-12.46c-5.39,0-8.4-.72-11.49-2.77-4.06-2.65-6.16-6.87-6.16-12.29,0-5.12,2.59-9.82,6.65-12.17,2.59-1.51,5.67-2.11,10.29-2.11h13.16v6.26h-12.46c-5.18,0-6.93,1.26-7.28,5.24h19.75v6.26Z"/>
    </g>
  </g>
  <path class="cls-2" d="M4.23,184.59V11.85c0-4.21,3.41-7.61,7.61-7.61h174.77c4.21,0,7.61,3.41,7.61,7.61v172.75c0,4.21-3.41,7.61-7.61,7.61H11.85c-4.21,0-7.61-3.41-7.61-7.61Z"/>
</svg>