<?xml version="1.0" encoding="UTF-8"?>
<svg id="Layer_1" data-name="Layer 1" xmlns="http://www.w3.org/2000/svg" width="198.46" height="196.44" xmlns:xlink="http://www.w3.org/1999/xlink" viewBox="100 85 90 50">
  <defs>
    <style>
      .cls-1, .cls-2, .cls-3, .cls-4, .cls-5 {
        fill: none;
      }

      .cls-6 {
        fill: #231f20;
      }

      .cls-7 {
        clip-path: url(#clippath-3);
      }

      .cls-8 {
        clip-path: url(#clippath-2);
      }

      .cls-2 {
        stroke-width: 1.14px;
      }

      .cls-2, .cls-3, .cls-4, .cls-5 {
        stroke: #231f20;
        stroke-miterlimit: 10;
      }

      .cls-3 {
        stroke-width: 4.55px;
      }

      .cls-4 {
        stroke-width: 4.48px;
      }

      .cls-5 {
        stroke-width: 8.46px;
      }
    </style>
  </defs>
  <g>
    <g>
      <path d="M84.62,91.87c-5.44-1.03-9.06,4.54-9.06,8.24s3.65,8.09,8.6,8.05c3.1,0,8.37-1.42,8.37-5.12s-2.19-10.09-7.91-11.17ZM87.03,100.16c-.94,0-1.7-.77-1.7-1.72s.76-1.72,1.7-1.72,1.7.77,1.7,1.72-.76,1.72-1.7,1.72Z"/>
      <path d="M115.34,91.87c-5.72,1.08-7.91,7.47-7.91,11.17s5.27,5.12,8.37,5.12c4.95.04,8.6-4.35,8.6-8.05s-3.61-9.27-9.06-8.24ZM119.44,100.16c-.94,0-1.7-.77-1.7-1.72s.76-1.72,1.7-1.72,1.7.77,1.7,1.72-.76,1.72-1.7,1.72Z"/>
    </g>
    <path class="cls-4" d="M65.78,106.4c3.73,6.55,25.91,10.81,33.45,10.07,9.17-.9,6.38,18.89-2.31,24.41-3.44,2.19-24.81.59-32.44-5.68-10.68-8.78.8-29.66,1.3-28.8Z"/>
    <path class="cls-3" d="M104.98,134.55c0-4.18-.81-13.26,2.81-16.93,4.46-4.52,12.34-2.22,25.6-9.34,3.48-1.87,7.51,19.9,1.98,25.49-2.02,2.04-13.57,7.5-21.12,7.93-9.17.53-9.28-4.03-9.28-7.15Z"/>
    <g>
      <g class="cls-8">
        <path class="cls-3" d="M177.55,80.53c-7.26,1.61-16.71-.75-26.33-1.77-9.07-.96-15.99-.7-19.71,1.09-1.62.78-4.09,3.04-3.33,5.97,0,0,3.6,6.69,4.59,10.51,1.38,5.33,2.03,10,2.03,10,.76,2.93,4.04,3.86,5.79,4.17,5.26.93,13.17-2.51,17.11-4.9,14.18-8.64,20.55-13.44,24.58-18.94,2.36-3.22,4.5-8.17-4.72-6.12Z"/>
        <path class="cls-2" d="M134.31,95.86c0-2.07,1.54-6.36,6.6-8.23,7.89-2.91,18.54-1.34,26.42-1.34,4.44,0,11.4-.99,15.37-4.12"/>
      </g>
      <g class="cls-7">
        <path class="cls-3" d="M20.91,80.53c7.26,1.61,16.71-.75,26.33-1.77,9.07-.96,15.99-.7,19.71,1.09,1.62.78,4.09,3.04,3.33,5.97,0,0-3.6,6.69-4.59,10.51-1.38,5.33-2.03,10-2.03,10-.76,2.93-4.04,3.86-5.79,4.17-5.26.93-13.17-2.51-17.11-4.9-14.18-8.64-20.55-13.44-24.58-18.94-2.36-3.22-4.5-8.17,4.72-6.12Z"/>
        <path class="cls-2" d="M64.15,95.86c0-2.07-1.54-6.36-6.6-8.23-7.89-2.91-18.54-1.34-26.42-1.34-4.44,0-11.4-.99-15.37-4.12"/>
      </g>
    </g>
    <path class="cls-3" d="M66.76,97.01c4.36-11.51,14.68-22.33,32.8-22.33s28.48,10.8,32.8,22.33c5.8,15.48-12.95,17.17-31.65,18.89-18.11,0-39.8-3.42-33.94-18.89Z"/>
  </g>
  <rect class="cls-5" x="4.23" y="4.23" width="190" height="187.97"/>
</svg>